<svg width="443" height="422" viewBox="0 0 443 422" fill="none" xmlns="http://www.w3.org/2000/svg">
<path d="M332.25 334.083C332.25 348.073 326.416 361.491 316.031 371.383C305.646 381.276 291.562 386.833 276.875 386.833H147.667C132.98 386.833 118.896 381.276 108.511 371.383C98.126 361.491 92.2918 348.073 92.2918 334.083V123.083H73.8335V70.3333H156.896L175.354 52.75H249.188L267.646 70.3333H350.709V123.083H332.25V334.083ZM110.75 123.083V334.083C110.75 343.41 114.64 352.355 121.563 358.95C128.486 365.545 137.876 369.25 147.667 369.25H276.875C286.666 369.25 296.056 365.545 302.979 358.95C309.902 352.355 313.792 343.41 313.792 334.083V123.083H110.75ZM332.25 105.5V87.9167H258.417L239.959 70.3333H184.583L166.125 87.9167H92.2918V105.5H332.25ZM147.667 158.25H166.125V334.083H147.667V158.25ZM258.417 158.25H276.875V334.083H258.417V158.25Z" fill="white"/>
</svg>
